<svg width="119" height="18" viewBox="0 0 119 18" xmlns="http://www.w3.org/2000/svg">
    <path fill="#373C46" fill-rule="evenodd" clip-rule="evenodd" d="M7.02306 4.4732C9.11987 4.4732 10.8883 5.25663 12.3282 6.84875L9.95354 9.19903C9.11987 8.31452 8.15988 7.8849 7.02306 7.8849C5.17887 7.8849 3.76416 9.30012 3.76416 11.2208C3.76416 13.1414 5.20414 14.5314 7.02306 14.5314C8.15988 14.5314 9.11987 14.1018 9.95354 13.2173L12.3282 15.5675C10.8883 17.1597 9.11987 17.9431 7.02306 17.9431C5.05256 17.9431 3.38521 17.3113 2.02102 16.0224C0.682095 14.7336 0 13.1414 0 11.2208C0 9.30012 0.682095 7.70799 2.02102 6.41913C3.38521 5.13027 5.05256 4.4732 7.02306 4.4732ZM32.6489 17.6144H28.8847V4.87743H32.6489V6.46955C33.1794 5.35759 34.6194 4.59944 36.3625 4.59944C39.4698 4.59944 41.2382 6.57064 41.2382 9.88125V17.6144H37.4741V10.3361C37.4741 8.84511 36.6404 7.93532 35.1499 7.93532C33.7099 7.93532 32.6489 8.97146 32.6489 10.4625V17.6144ZM50.9214 17.6143H47.5614L42.1047 4.87734H45.9193L49.254 12.9643L52.5635 4.87734H56.3782L50.9214 17.6143ZM75.1508 17.6144H71.3867V4.87743H75.1508V6.62118C75.7319 5.33232 77.096 4.59944 78.8392 4.59944C79.0918 4.59944 79.4202 4.62471 79.8244 4.67525V8.21331C79.4455 8.13749 79.016 8.08695 78.5613 8.08695C76.4139 8.08695 75.1508 9.3 75.1508 11.3976V17.6144ZM86.983 17.6145H83.3199V8.28916H81.6273V4.87746H83.3199V0H86.983V4.87746H89.7872V8.28916H86.983V17.6145ZM56.3055 11.3215V11.2204C56.3055 9.22393 56.9623 7.60653 58.2507 6.39348C59.5391 5.15516 61.2064 4.54864 63.2022 4.54864C65.1474 4.54864 66.7137 5.18043 67.9263 6.41875C69.139 7.65707 69.7453 9.17338 69.7453 11.0182C69.7453 11.4478 69.72 11.8522 69.6947 12.2313H60.0696C60.1454 13.7476 61.4591 14.7332 63.4548 14.7332C64.6422 14.7332 65.678 14.3288 66.5622 13.4949L68.76 15.5924C67.2695 17.134 65.4253 17.9174 63.278 17.9174C61.1812 17.9174 59.5138 17.3109 58.2254 16.1231C56.937 14.9101 56.3055 13.318 56.3055 11.3215ZM65.9558 9.78037H60.1201C60.2212 8.59259 61.5601 7.65753 63.2022 7.65753C64.718 7.65753 65.9558 8.59259 65.9558 9.78037ZM91.5966 12.4842V4.87734H95.4112V12.1556C95.4112 13.773 96.346 14.5059 97.7354 14.5059C99.1249 14.5059 100.06 13.773 100.06 12.1556V4.87734H103.874V12.4842C103.874 14.2532 103.293 15.6179 102.106 16.5529C100.944 17.488 99.4786 17.9682 97.7354 17.9682C95.9923 17.9682 94.527 17.488 93.3397 16.5529C92.1776 15.6179 91.5966 14.2532 91.5966 12.4842ZM105.07 17.6143H109.138L111.992 13.6467L114.847 17.6143H118.914L114.089 10.9173L118.46 4.87734H114.367L111.992 8.23849L109.618 4.87734H105.525L109.895 10.9173L105.07 17.6143ZM20.126 4.49841C22.0713 4.49841 23.7386 5.15548 25.1281 6.46961C26.5175 7.75848 27.1996 9.3506 27.1996 11.246C27.1996 13.1414 26.5175 14.7335 25.1281 16.0476C23.7386 17.3365 22.0713 17.9936 20.126 17.9936C18.1555 17.9936 16.4882 17.3365 15.0987 16.0476C13.7345 14.7335 13.0524 13.1414 13.0524 11.246C13.0524 9.3506 13.7345 7.75848 15.0987 6.46961C16.4882 5.15548 18.1555 4.49841 20.126 4.49841ZM17.7764 13.6217C17.1449 12.9899 16.8164 12.1812 16.8164 11.2461C16.8164 10.311 17.1449 9.52762 17.7764 8.89583C18.408 8.23876 19.1912 7.91022 20.1259 7.91022C21.0606 7.91022 21.8437 8.23876 22.4753 8.89583C23.1069 9.52762 23.4353 10.311 23.4353 11.2461C23.4353 12.1812 23.1069 12.9646 22.4753 13.6217C21.8437 14.2535 21.0606 14.582 20.1259 14.582C19.1912 14.582 18.408 14.2535 17.7764 13.6217Z"/>
</svg>
